<?xml version="1.0" standalone="no"?>
<!DOCTYPE svg PUBLIC "-//W3C//DTD SVG 20010904//EN"
 "http://www.w3.org/TR/2001/REC-SVG-20010904/DTD/svg10.dtd">
<svg version="1.0" xmlns="http://www.w3.org/2000/svg"
 width="200.000000pt" height="200.000000pt" viewBox="0 0 200.000000 200.000000"
 preserveAspectRatio="xMidYMid meet">

<g transform="translate(0.000000,200.000000) scale(0.100000,-0.100000)"
fill="#000000" stroke="none">
<path d="M0 1000 l0 -1000 1000 0 1000 0 0 1000 0 1000 -1000 0 -1000 0 0
-1000z m1018 538 c2 -46 7 -57 22 -61 15 -4 20 -14 20 -40 0 -36 -13 -56 -25
-37 -3 5 -19 10 -35 10 -16 0 -32 -5 -35 -10 -4 -6 -11 -8 -16 -5 -14 9 0 58
22 77 14 12 19 30 19 73 0 77 24 71 28 -7z m40 -168 c2 -5 3 -12 2 -15 0 -3 9
-14 21 -24 29 -24 17 -48 -14 -26 -12 8 -40 15 -62 15 -22 0 -50 -7 -62 -15
-31 -22 -43 2 -14 26 12 10 22 20 21 23 -1 20 2 25 18 30 25 7 86 -2 90 -14z
m-360 -58 c2 -7 -9 -10 -30 -8 -18 2 -24 1 -13 -1 18 -4 65 -45 65 -57 0 -2
-24 -2 -54 1 -31 3 -56 1 -59 -4 -4 -7 9 -9 37 -6 34 4 48 1 62 -13 11 -11 32
-27 47 -37 15 -10 25 -22 22 -28 -4 -5 -15 -3 -28 6 -34 24 -197 19 -197 -7 0
-5 5 -6 10 -3 21 13 171 7 193 -8 22 -14 32 -57 14 -57 -6 0 -6 -5 -1 -12 15
-21 10 -54 -6 -48 -8 3 -63 5 -121 5 -104 0 -107 1 -107 23 1 29 30 37 136 37
58 -1 76 2 60 8 -24 9 -152 4 -179 -7 -13 -6 -16 1 -16 39 -1 43 2 48 28 57
22 8 29 16 29 36 0 15 7 35 15 45 7 11 11 25 8 33 -3 8 4 17 18 23 26 9 61 1
67 -17z m662 8 c0 -13 7 -20 18 -20 29 0 39 -18 35 -59 -3 -35 -1 -40 26 -49
26 -9 29 -14 28 -57 0 -38 -3 -45 -16 -39 -26 12 -154 16 -179 7 -16 -6 3 -9
60 -8 106 0 138 -8 138 -38 0 -22 -2 -22 -122 -20 -125 2 -140 7 -115 41 6 7
6 12 0 12 -18 0 -8 43 13 57 23 14 146 20 184 8 11 -3 20 -2 20 3 0 26 -163
31 -197 7 -13 -9 -24 -11 -28 -6 -3 6 7 18 22 28 38 24 42 31 36 70 -5 31 -3
33 26 39 21 5 31 12 31 25 0 11 5 19 10 19 6 0 10 -9 10 -20z m-272 -45 c13
-13 14 -19 4 -22 -10 -4 -10 -8 -1 -19 17 -21 3 -29 -26 -16 -32 15 -75 15
-110 2 -32 -12 -51 -4 -35 15 8 10 8 14 -1 17 -17 6 -3 27 25 39 34 14 125 5
144 -16z m52 -93 c28 -14 35 -23 36 -49 2 -37 -2 -39 -42 -18 -40 21 -218 21
-258 0 -41 -22 -44 -17 -37 47 2 13 42 30 90 38 63 12 169 3 211 -18z m7 -94
c21 -10 28 -21 29 -46 2 -30 -1 -33 -20 -27 -79 25 -163 26 -300 3 -19 -3 -22
7 -17 51 1 9 44 26 91 35 43 8 189 -2 217 -16z m-380 -80 c19 -15 5 -30 -17
-18 -10 5 -64 10 -119 10 -57 0 -101 4 -101 9 0 21 211 19 237 -1z m686 6 c31
-9 19 -27 -14 -20 -17 3 -75 6 -127 6 -59 0 -92 4 -86 9 18 18 167 21 227 5z
m-323 -17 c28 -8 45 -18 45 -27 0 -8 -7 -13 -15 -11 -8 2 -31 7 -50 12 -45 11
-162 11 -220 -1 -47 -9 -70 -1 -48 18 27 22 214 28 288 9z m-395 -16 c21 -4
31 -13 33 -29 3 -22 1 -22 -95 -22 -123 0 -140 5 -140 36 0 24 1 24 86 23 47
-1 100 -4 116 -8z m690 1 c33 -6 40 -11 40 -31 0 -24 -1 -24 -100 -22 -144 3
-151 6 -136 59 2 5 159 0 196 -6z m-267 -41 c14 -8 20 -19 18 -38 l-3 -27
-159 3 c-87 1 -164 7 -170 12 -19 16 -9 53 17 61 35 11 272 2 297 -11z m-488
-32 c0 -11 -117 -12 -124 0 -3 4 -4 10 -2 12 8 8 126 -3 126 -12z m680 0 c0
-11 -117 -12 -124 0 -3 4 -4 10 -2 12 8 8 126 -3 126 -12z m-215 -47 c25 -5
40 -13 40 -22 0 -8 -7 -13 -15 -11 -8 2 -82 7 -164 10 -106 4 -151 10 -154 19
-3 9 26 12 125 11 70 0 146 -3 168 -7z m-127 -48 c33 -10 -6 -24 -69 -24 -67
0 -115 13 -105 28 4 8 150 4 174 -4z"/>
<path d="M989 1449 c-10 -6 -4 -9 19 -9 17 0 32 2 32 4 0 9 -39 13 -51 5z"/>
<path d="M993 1353 c9 -2 23 -2 30 0 6 3 -1 5 -18 5 -16 0 -22 -2 -12 -5z"/>
<path d="M613 1133 c20 -2 54 -2 75 0 20 2 3 4 -38 4 -41 0 -58 -2 -37 -4z"/>
<path d="M568 1063 c6 -2 18 -2 25 0 6 3 1 5 -13 5 -14 0 -19 -2 -12 -5z"/>
<path d="M708 1063 c6 -2 18 -2 25 0 6 3 1 5 -13 5 -14 0 -19 -2 -12 -5z"/>
<path d="M1328 1273 c12 -2 32 -2 45 0 12 2 2 4 -23 4 -25 0 -35 -2 -22 -4z"/>
<path d="M1307 1243 c-3 -5 17 -8 43 -8 27 0 46 3 43 7 -6 10 -80 10 -86 1z"/>
<path d="M1308 1133 c23 -2 59 -2 80 0 20 2 1 4 -43 4 -44 0 -61 -2 -37 -4z"/>
<path d="M1268 1063 c6 -2 18 -2 25 0 6 3 1 5 -13 5 -14 0 -19 -2 -12 -5z"/>
<path d="M1403 1063 c9 -2 23 -2 30 0 6 3 -1 5 -18 5 -16 0 -22 -2 -12 -5z"/>
<path d="M953 1262 c-6 -4 17 -7 52 -7 35 0 58 3 52 7 -7 4 -30 8 -52 8 -22 0
-45 -4 -52 -8z"/>
<path d="M926 1170 c-27 -5 -54 -14 -60 -20 -8 -8 -3 -8 18 0 31 11 183 15
232 5 23 -4 25 -4 8 4 -32 14 -144 20 -198 11z"/>
<path d="M920 1071 c-23 -4 1 -7 70 -7 58 1 119 -3 135 -7 23 -6 26 -5 13 3
-22 14 -171 21 -218 11z"/>
<path d="M870 921 c-17 -6 22 -9 117 -10 78 -1 150 -4 160 -7 14 -5 15 -4 7 5
-14 15 -248 24 -284 12z"/>
</g>
</svg>
