<svg width="48" height="48" viewBox="0 0 48 48" fill="none" xmlns="http://www.w3.org/2000/svg">
<path d="M28.7 4H19.3C17.22 4 15.52 5.68 15.52 7.76V9.64C15.52 11.72 17.2 13.4 19.28 13.4H28.7C30.78 13.4 32.46 11.72 32.46 9.64V7.76C32.48 5.68 30.78 4 28.7 4Z" fill="#0E87F6"/>
<path d="M34.48 9.63996C34.48 12.82 31.88 15.42 28.7 15.42H19.3C16.12 15.42 13.52 12.82 13.52 9.63996C13.52 8.51996 12.32 7.81996 11.32 8.33996C8.50002 9.83996 6.58002 12.82 6.58002 16.24V35.06C6.58002 39.98 10.6 44 15.52 44H32.48C37.4 44 41.42 39.98 41.42 35.06V16.24C41.42 12.82 39.5 9.83996 36.68 8.33996C35.68 7.81996 34.48 8.51996 34.48 9.63996ZM24.76 33.9H16C15.18 33.9 14.5 33.22 14.5 32.4C14.5 31.58 15.18 30.9 16 30.9H24.76C25.58 30.9 26.26 31.58 26.26 32.4C26.26 33.22 25.58 33.9 24.76 33.9ZM30 25.9H16C15.18 25.9 14.5 25.22 14.5 24.4C14.5 23.58 15.18 22.9 16 22.9H30C30.82 22.9 31.5 23.58 31.5 24.4C31.5 25.22 30.82 25.9 30 25.9Z" fill="#0E87F6"/>
</svg>
